<?xml version="1.0" encoding="UTF-8" standalone="no"?>
<!-- Created with Inkscape (http://www.inkscape.org/) -->

<svg
   xmlns:dc="http://purl.org/dc/elements/1.1/"
   xmlns:cc="http://creativecommons.org/ns#"
   xmlns:rdf="http://www.w3.org/1999/02/22-rdf-syntax-ns#"
   xmlns:svg="http://www.w3.org/2000/svg"
   xmlns="http://www.w3.org/2000/svg"
   xmlns:sodipodi="http://sodipodi.sourceforge.net/DTD/sodipodi-0.dtd"
   xmlns:inkscape="http://www.inkscape.org/namespaces/inkscape"
   width="10mm"
   height="10mm"
   viewBox="0 0 10 10"
   version="1.1"
   id="svg8"
   inkscape:version="0.92.2 (5c3e80d, 2017-08-06)"
   sodipodi:docname="logo.svg"
   inkscape:export-filename="C:\Users\Luke\Documents\GitHub\WebTech\public\images\logo.png"
   inkscape:export-xdpi="162.56"
   inkscape:export-ydpi="162.56">
  <defs
     id="defs2" />
  <sodipodi:namedview
     id="base"
     pagecolor="#ffffff"
     bordercolor="#666666"
     borderopacity="1.0"
     inkscape:pageopacity="0.0"
     inkscape:pageshadow="2"
     inkscape:zoom="11.2"
     inkscape:cx="32.565913"
     inkscape:cy="6.9340588"
     inkscape:document-units="mm"
     inkscape:current-layer="layer1"
     showgrid="false"
     inkscape:window-width="1920"
     inkscape:window-height="1137"
     inkscape:window-x="1272"
     inkscape:window-y="-8"
     inkscape:window-maximized="1" />
  <metadata
     id="metadata5">
    <rdf:RDF>
      <cc:Work
         rdf:about="">
        <dc:format>image/svg+xml</dc:format>
        <dc:type
           rdf:resource="http://purl.org/dc/dcmitype/StillImage" />
        <dc:title />
      </cc:Work>
    </rdf:RDF>
  </metadata>
  <g
     inkscape:groupmode="layer"
     id="layer2"
     inkscape:label="Layer 2">
    <rect
       transform="translate(0,-287)"
       id="rect3725"
       width="10"
       height="10"
       x="0"
       y="287"
       style="fill:#42abcd;fill-opacity:0.9372549;stroke-width:0.2647754"
       ry="3.6380122" />
  </g>
  <g
     inkscape:label="Layer 1"
     inkscape:groupmode="layer"
     id="layer1"
     transform="translate(0,-287)">
    <flowRoot
       xml:space="preserve"
       id="flowRoot3699"
       style="font-style:normal;font-weight:normal;font-size:40px;line-height:1.25;font-family:sans-serif;letter-spacing:0px;word-spacing:0px;fill:#000000;fill-opacity:1;stroke:none"
       transform="matrix(0.26458333,0,0,0.26458333,-34.017857,260.04762)"><flowRegion
         id="flowRegion3701"><rect
           id="rect3703"
           width="154.28572"
           height="98.571426"
           x="72.85714"
           y="135.37683" /></flowRegion><flowPara
         id="flowPara3705" /></flowRoot>    <g
       aria-label="w"
       transform="matrix(0.9422845,0.17141277,-0.14175913,1.0354629,0,0)"
       style="font-style:normal;font-weight:normal;font-size:7.49929619px;line-height:1.25;font-family:sans-serif;letter-spacing:0px;word-spacing:0px;fill:#ffffff;fill-opacity:1;stroke:none;stroke-width:0.18748239"
       id="text3713">
      <path
         d="m 46.437974,274.85982 c -0.805023,0.20018 -0.540562,-1.82734 -1.364837,-1.83743 -0.929734,-0.0114 -0.908481,2.25537 -1.795609,2.03169 -1.4282,-0.3601 -1.842195,-3.83117 -0.358853,-4.0902 1.178181,-0.20574 -0.422669,3.02848 0.750662,3.16743 0.844937,0.10006 0.497933,-2.04041 1.355222,-2.05642 0.878068,-0.0164 0.413031,2.21288 1.281249,2.05642 1.153703,-0.2079 -0.439892,-3.30204 0.710383,-3.16743 1.402599,0.16414 0.809401,3.5509 -0.578217,3.89594 z"
         style="fill:#ffffff;fill-opacity:1;stroke-width:0.18748239"
         id="path848"
         inkscape:connector-curvature="0"
         sodipodi:nodetypes="aaaaaaaaa" />
    </g>
    <g
       aria-label="s"
       transform="matrix(0.97725707,0.22156106,-0.22271217,0.97277951,0,0)"
       style="font-style:normal;font-weight:normal;font-size:8.11926842px;line-height:1.25;font-family:sans-serif;letter-spacing:0px;word-spacing:0px;fill:#ffffff;fill-opacity:1;stroke:none;stroke-width:0.2029817"
       id="text3717">
      <path
         d="m 73.509016,287.0147 c -0.564972,0.58651 -2.602374,1.25791 -3.05569,-0.39268 -0.453316,-1.65059 1.728979,0.57725 2.081582,-0.0221 0.54471,-0.92592 -1.912162,-1.09159 -1.519356,-2.8493 0.392806,-1.75771 3.784119,-1.1345 3.120571,0.0928 -0.663548,1.2273 -2.360728,-1.02896 -2.151885,0.26937 0.868234,1.73437 2.413944,1.85453 1.524778,2.90193 z"
         style="fill:#ffffff;fill-opacity:1;stroke-width:0.2029817"
         id="path851"
         inkscape:connector-curvature="0"
         sodipodi:nodetypes="czazzcc"
         inkscape:export-xdpi="162.56"
         inkscape:export-ydpi="162.56" />
    </g>
  </g>
</svg>
